<svg xmlns="http://www.w3.org/2000/svg" xmlns:xlink="http://www.w3.org/1999/xlink" preserveAspectRatio="xMidYMid" width="113" height="109" viewBox="0 0 113 109">
  <defs>
    <style>

      .cls-2 {
        fill: #2b2b2b;
      }
    </style>
  </defs>
  <path d="M102.918,83.932 C102.451,84.399 101.839,84.633 101.226,84.633 C100.614,84.633 100.002,84.399 99.535,83.932 C98.600,82.997 98.600,81.483 99.535,80.549 C104.862,75.220 107.797,68.134 107.797,60.599 C107.797,53.062 104.862,45.981 99.535,40.657 C98.600,39.725 98.600,38.208 99.535,37.274 C100.470,36.339 101.983,36.339 102.918,37.274 C109.150,43.502 112.582,51.784 112.582,60.599 C112.582,69.412 109.150,77.699 102.918,83.932 ZM94.986,77.519 C94.519,77.986 93.907,78.220 93.294,78.220 C92.682,78.220 92.070,77.986 91.603,77.519 C90.668,76.584 90.668,75.070 91.603,74.136 C95.292,70.447 97.322,65.543 97.322,60.328 C97.322,55.111 95.292,50.212 91.603,46.526 C90.668,45.593 90.668,44.077 91.603,43.143 C92.537,42.208 94.051,42.208 94.986,43.143 C99.577,47.731 102.107,53.833 102.107,60.328 C102.107,66.821 99.580,72.926 94.986,77.519 ZM71.107,72.458 C71.107,72.458 45.476,72.458 45.476,72.458 C44.155,72.458 43.084,71.388 43.084,70.066 C43.084,65.122 40.932,60.830 38.440,55.859 C35.411,49.815 31.978,42.965 31.978,33.545 C31.978,11.766 43.249,0.015 53.853,0.015 C65.638,0.015 79.336,16.703 79.336,38.220 C79.336,49.523 75.918,66.069 73.224,71.180 C72.811,71.968 71.995,72.458 71.107,72.458 ZM53.853,4.799 C45.568,4.799 36.763,14.873 36.763,33.545 C36.763,41.832 39.791,47.873 42.718,53.714 C45.011,58.289 47.195,62.646 47.739,67.674 C47.739,67.674 69.561,67.674 69.561,67.674 C71.691,62.249 74.551,48.236 74.551,38.220 C74.551,18.128 62.093,4.799 53.853,4.799 ZM15.246,60.328 C15.246,65.543 17.277,70.447 20.965,74.136 C21.899,75.070 21.899,76.584 20.965,77.519 C20.497,77.986 19.885,78.220 19.273,78.220 C18.661,78.220 18.049,77.986 17.581,77.519 C12.989,72.926 10.461,66.821 10.461,60.328 C10.461,53.833 12.990,47.731 17.581,43.143 C18.516,42.208 20.031,42.208 20.966,43.143 C21.899,44.077 21.899,45.593 20.965,46.526 C17.277,50.212 15.246,55.111 15.246,60.328 ZM4.771,60.599 C4.771,68.134 7.705,75.220 13.033,80.549 C13.968,81.483 13.968,82.997 13.033,83.932 C12.566,84.399 11.954,84.633 11.342,84.633 C10.730,84.633 10.118,84.399 9.650,83.932 C3.418,77.699 -0.014,69.412 -0.014,60.599 C-0.014,51.784 3.418,43.502 9.650,37.274 C10.585,36.339 12.100,36.339 13.035,37.274 C13.968,38.208 13.968,39.725 13.033,40.657 C7.705,45.981 4.771,53.062 4.771,60.599 ZM44.946,77.243 C44.946,77.243 71.264,77.243 71.264,77.243 C72.586,77.243 73.656,78.313 73.656,79.635 C73.656,79.635 73.656,98.309 73.656,98.309 C73.656,104.218 67.261,108.344 58.105,108.344 C48.948,108.344 42.554,104.218 42.554,98.309 C42.554,98.309 42.554,79.635 42.554,79.635 C42.554,78.313 43.625,77.243 44.946,77.243 ZM47.339,98.309 C47.339,100.891 51.365,103.559 58.105,103.559 C64.843,103.559 68.871,100.891 68.871,98.309 C68.871,98.309 68.871,82.028 68.871,82.028 C68.871,82.028 47.339,82.028 47.339,82.028 C47.339,82.028 47.339,98.309 47.339,98.309 Z" id="path-1" class="cls-2" fill-rule="evenodd"/>
</svg>

