<svg xmlns="http://www.w3.org/2000/svg" xmlns:xlink="http://www.w3.org/1999/xlink" preserveAspectRatio="xMidYMid" width="108" height="106" viewBox="0 0 108 106">
  <defs>
    <style>

      .cls-2 {
        fill: #2b2b2b;
      }
    </style>
  </defs>
  <path d="M100.488,105.278 C100.488,105.278 38.282,105.278 38.282,105.278 C34.324,105.278 31.105,102.058 31.105,98.101 C31.105,98.101 31.105,52.646 31.105,52.646 C31.105,48.688 34.324,45.469 38.282,45.469 C38.282,45.469 47.852,45.469 47.852,45.469 C47.852,45.469 47.852,26.330 47.852,26.330 C47.852,14.457 38.194,4.799 26.320,4.799 C14.446,4.799 4.787,14.457 4.787,26.330 C4.787,26.330 4.787,47.861 4.787,47.861 C4.787,47.861 0.002,47.861 0.002,47.861 C0.002,47.861 0.002,26.330 0.002,26.330 C0.002,11.819 11.808,0.014 26.320,0.014 C40.831,0.014 52.637,11.819 52.637,26.330 C52.637,26.330 52.637,45.469 52.637,45.469 C52.637,45.469 100.488,45.469 100.488,45.469 C104.446,45.469 107.666,48.688 107.666,52.646 C107.666,52.646 107.666,98.101 107.666,98.101 C107.666,102.058 104.446,105.278 100.488,105.278 ZM102.881,52.646 C102.881,51.326 101.808,50.253 100.488,50.253 C100.488,50.253 38.282,50.253 38.282,50.253 C36.962,50.253 35.890,51.326 35.890,52.646 C35.890,52.646 35.890,98.101 35.890,98.101 C35.890,99.421 36.962,100.493 38.282,100.493 C38.282,100.493 100.488,100.493 100.488,100.493 C101.808,100.493 102.881,99.421 102.881,98.101 C102.881,98.101 102.881,52.646 102.881,52.646 ZM76.563,78.913 C76.563,78.913 76.563,86.139 76.563,86.139 C76.563,90.097 73.343,93.316 69.385,93.316 C65.427,93.316 62.208,90.097 62.208,86.139 C62.208,86.139 62.208,78.915 62.208,78.915 C58.383,76.046 56.619,71.196 57.785,66.423 C58.829,62.157 62.268,58.755 66.546,57.760 C67.486,57.540 68.441,57.431 69.383,57.431 C75.981,57.431 81.348,62.797 81.348,69.392 C81.348,73.133 79.544,76.665 76.563,78.913 ZM69.383,62.215 C68.806,62.215 68.215,62.283 67.631,62.419 C65.133,63.000 63.044,65.068 62.434,67.558 C61.647,70.775 62.969,73.918 65.803,75.567 C66.539,75.995 66.993,76.782 66.993,77.635 C66.993,77.635 66.993,86.139 66.993,86.139 C66.993,87.459 68.065,88.531 69.385,88.531 C70.705,88.531 71.778,87.459 71.778,86.139 C71.778,86.139 71.778,77.635 71.778,77.635 C71.778,76.784 72.231,75.997 72.967,75.567 C75.219,74.256 76.563,71.948 76.563,69.392 C76.563,65.435 73.343,62.215 69.383,62.215 Z" id="path-1" class="cls-2" fill-rule="evenodd"/>
</svg>

