<svg xmlns="http://www.w3.org/2000/svg" width="60" height="81" viewBox="0 0 60 81">
  <defs>
    <style>
      .cls-1 {
        fill: #2b2b2c;
        fill-rule: evenodd;
      }
    </style>
  </defs>
  <path id="ic11.svg" class="cls-1" d="M954.089,3756.2a1.835,1.835,0,0,0-1.367-.62h-1.21l1.353-11.3h2.31a1.829,1.829,0,0,0,1.828-1.83v-3.56a5.488,5.488,0,0,0-4.163-5.32l-0.816-3.31a1.835,1.835,0,0,0-1.774-1.39H946.1l-2.1-3.91a1.838,1.838,0,0,0-1.609-.97h-8.32a1.839,1.839,0,0,0-1.61.97l-2.1,3.91H903.746a1.833,1.833,0,0,0-1.774,1.4l-0.816,3.3a5.488,5.488,0,0,0-4.163,5.32v3.56a1.829,1.829,0,0,0,1.828,1.83h2.31l1.353,11.3h-1.21a1.836,1.836,0,0,0-1.815,2.05l3.2,26.77a1.826,1.826,0,0,0,1.814,1.61h1.649l2.081,17.38a1.835,1.835,0,0,0,1.814,1.62h33.954a1.835,1.835,0,0,0,1.814-1.62l2.081-17.38h1.649a1.826,1.826,0,0,0,1.814-1.61l3.2-26.77A1.82,1.82,0,0,0,954.089,3756.2Zm-53.441-17.31a1.81,1.81,0,0,1,1.807-1.81h0.17a1.822,1.822,0,0,0,1.773-1.39l0.778-3.15h26.287a1.82,1.82,0,0,0,1.61-.97l2.1-3.91H941.3l2.1,3.91a1.82,1.82,0,0,0,1.61.97h3.812l0.778,3.15a1.822,1.822,0,0,0,1.773,1.39h0.17a1.81,1.81,0,0,1,1.807,1.81v1.73h-52.7v-1.73Zm4.164,5.39h44.372l-1.353,11.3H906.165Zm37.542,57.06H911.642l-1.835-15.33h34.382Zm5.544-18.99H906.1l-2.765-23.1h47.33Z" transform="translate(-897 -3724)"/>
</svg>

