<svg xmlns="http://www.w3.org/2000/svg" width="87.07" height="86.78" viewBox="0 0 87.07 86.78">
  <defs>
    <style>
      .cls-1 {
        fill: #2b2b2c;
        fill-rule: evenodd;
      }
    </style>
  </defs>
  <path id="ic17.svg" class="cls-1" d="M1333.29,3655.75h-14.54v-7.86a1.766,1.766,0,0,0-.52-1.24,25.362,25.362,0,0,0-35.79,0,1.766,1.766,0,0,0-.52,1.24v7.86h-14.54a10.578,10.578,0,0,0-10.58,10.55v49.19a10.578,10.578,0,0,0,10.58,10.55h65.91a10.571,10.571,0,0,0,10.58-10.55V3666.3A10.571,10.571,0,0,0,1333.29,3655.75Zm-47.85-7.12a21.86,21.86,0,0,1,29.79,0v7.12h-29.79v-7.12Zm-18.06,10.63h65.91a7.063,7.063,0,0,1,7.07,7.04v11.37l-29.75,9.44v-2.14a1.748,1.748,0,0,0-1.76-1.75h-17.03a1.754,1.754,0,0,0-1.76,1.75v2.14l-29.74-9.44V3666.3A7.061,7.061,0,0,1,1267.38,3659.26Zm39.71,27.46v6.34l-2.41,4.92H1296l-2.42-4.92v-6.34h13.51Zm26.2,35.81h-65.91a7.061,7.061,0,0,1-7.06-7.04v-1.1h18.5a1.75,1.75,0,1,0,0-3.5h-18.5v-5.26h7.48a1.755,1.755,0,1,0,0-3.51h-7.48v-20.77l29.74,9.44v2.67a1.708,1.708,0,0,0,.18.77l3.08,6.28a1.756,1.756,0,0,0,1.58.98h10.88a1.767,1.767,0,0,0,1.58-.98l3.07-6.28a1.708,1.708,0,0,0,.18-0.77v-2.67l29.75-9.44v20.77h-7.49a1.755,1.755,0,1,0,0,3.51h7.49v5.26h-18.51a1.75,1.75,0,1,0,0,3.5h18.51v1.1A7.063,7.063,0,0,1,1333.29,3722.53Zm-36.67-45.77h7.44a1.75,1.75,0,0,0,0-3.5h-7.44A1.75,1.75,0,1,0,1296.62,3676.76Z" transform="translate(-1256.81 -3639.25)"/>
</svg>

