<svg xmlns="http://www.w3.org/2000/svg" width="86" height="85" viewBox="0 0 86 85">
  <defs>
    <style>
      .cls-1 {
        fill: #2b2b2c;
        fill-rule: evenodd;
      }
    </style>
  </defs>
  <path id="ic2.svg" class="cls-1" d="M1084.43,3363.92s-3.77-1.48-6.2-2.42a11.875,11.875,0,1,0-19.51,0c-2.43.94-6.2,2.42-6.2,2.42-2.99,1.16-7.52,2.92-7.52,9.1v13.52a1.453,1.453,0,0,0,1.46,1.45h44.03a1.451,1.451,0,0,0,1.45-1.45v-13.52C1091.94,3366.84,1087.42,3365.08,1084.43,3363.92Zm-15.96-18.17a8.985,8.985,0,1,1-8.96,8.98A8.99,8.99,0,0,1,1068.47,3345.75Zm20.56,39.33h-6.19v-7.18a1.455,1.455,0,1,0-2.91,0v7.18h-22.91v-7.18a1.455,1.455,0,1,0-2.91,0v7.18h-6.2v-12.06c0-4.18,2.75-5.25,5.66-6.38,0,0,4.44-1.74,7.24-2.83a11.813,11.813,0,0,0,15.32,0c2.81,1.09,7.24,2.83,7.24,2.83,2.91,1.13,5.66,2.2,5.66,6.38v12.06Zm14.87-21.16-6.19-2.42a11.9,11.9,0,0,0-9.76-18.67,11.931,11.931,0,0,0-4.02.7,1.46,1.46,0,0,0,.98,2.75,8.766,8.766,0,0,1,3.04-.53,8.987,8.987,0,0,1,6.32,15.35,1.482,1.482,0,0,0-.39,1.33,1.463,1.463,0,0,0,.9,1.06c3.08,1.2,8.07,3.15,8.07,3.15,2.91,1.13,5.66,2.2,5.66,6.38v12.06h-9.71a1.455,1.455,0,1,0,0,2.91h11.16a1.453,1.453,0,0,0,1.46-1.45v-13.52C1111.42,3366.84,1106.89,3365.08,1103.9,3363.92Zm19.59,0s-3.77-1.47-6.19-2.42a11.915,11.915,0,0,0-9.77-18.67,11.931,11.931,0,0,0-4.02.7,1.461,1.461,0,1,0,.99,2.75,8.67,8.67,0,0,1,3.03-.53,8.994,8.994,0,0,1,6.33,15.35,1.455,1.455,0,0,0,.5,2.39c3.08,1.2,8.07,3.15,8.07,3.15,2.91,1.13,5.66,2.2,5.66,6.38v12.06h-9.71a1.455,1.455,0,0,0,0,2.91h11.17a1.451,1.451,0,0,0,1.45-1.45v-13.52C1131,3366.84,1126.48,3365.08,1123.49,3363.92Zm6.06-54.67h-34a7.688,7.688,0,0,0-15.1,0h-33.99a1.462,1.462,0,0,0-1.46,1.46v8.33a1.455,1.455,0,0,0,1.46,1.46h2.7v37.62a1.455,1.455,0,1,0,2.91,0V3320.5h71.87v37.62a1.455,1.455,0,1,0,2.91,0V3320.5h2.7a1.453,1.453,0,0,0,1.45-1.46v-8.33A1.46,1.46,0,0,0,1129.55,3309.25Zm-1.46,8.33h-80.18v-5.41h33.86a1.453,1.453,0,0,0,1.45-1.46,4.78,4.78,0,1,1,9.56,0,1.453,1.453,0,0,0,1.45,1.46h33.86v5.41Zm-40.09-9.16a2.29,2.29,0,1,0,2.29,2.29A2.288,2.288,0,0,0,1088,3308.42Zm3.57,19.72a1.464,1.464,0,0,0-1.56,0l-9.05,5.78-9.06-5.78a1.464,1.464,0,0,0-1.56,0l-9.83,6.28a1.459,1.459,0,0,0,.78,2.69,1.391,1.391,0,0,0,.78-0.23l9.05-5.78,9.06,5.78a1.464,1.464,0,0,0,1.56,0l9.05-5.78,9.06,5.78a1.464,1.464,0,0,0,1.56,0l7.71-4.93a2.914,2.914,0,1,0-1.57-2.58c0,0.04.01,0.08,0.01,0.12l-6.93,4.43Z" transform="translate(-1045 -3303)"/>
</svg>

